<svg xmlns="http://www.w3.org/2000/svg" xmlns:xlink="http://www.w3.org/1999/xlink" width="1000" zoomAndPan="magnify" viewBox="0 0 750 749.999995" height="1000" preserveAspectRatio="xMidYMid meet" version="1.0"><defs><filter x="0%" y="0%" width="100%" height="100%" id="7afa219f49"><feColorMatrix values="0 0 0 0 1 0 0 0 0 1 0 0 0 0 1 0 0 0 1 0" color-interpolation-filters="sRGB"/></filter><mask id="e311d162ea"><g filter="url(#7afa219f49)"><rect x="-75" width="900" fill="#000000" y="-74.999999" height="899.999994" fill-opacity="0.098"/></g></mask><clipPath id="2821590636"><path d="M 0 422 L 749 422 L 749 749.4375 L 0 749.4375 Z M 0 422 " clip-rule="nonzero"/></clipPath><clipPath id="328d540c87"><path d="M 422 0.9375 L 750 0.9375 L 750 749.4375 L 422 749.4375 Z M 422 0.9375 " clip-rule="nonzero"/></clipPath><clipPath id="f78a155904"><path d="M 0 0.9375 L 328 0.9375 L 328 749.4375 L 0 749.4375 Z M 0 0.9375 " clip-rule="nonzero"/></clipPath><clipPath id="b7935f7560"><rect x="0" width="750" y="0" height="750"/></clipPath></defs><g mask="url(#e311d162ea)"><g transform="matrix(1, 0, 0, 1, 0, -0.000000000000042411)"><g clip-path="url(#b7935f7560)"><g clip-path="url(#2821590636)"><path fill="#231f20" d="M 0.621094 749.25 L 2.207031 747.664062 L 326.363281 422.285156 L 326.753906 422.285156 L 421.234375 422.023438 L 748.820312 748.578125 Z M 327.144531 424.035156 L 5.113281 747.386719 L 744.308594 746.714844 L 420.46875 423.792969 Z M 327.144531 424.035156 " fill-opacity="1" fill-rule="nonzero"/></g><path fill="#231f20" d="M 94.484375 654.984375 L 654.191406 654.984375 L 654.191406 656.851562 L 94.484375 656.851562 Z M 94.484375 654.984375 " fill-opacity="1" fill-rule="nonzero"/><path fill="#231f20" d="M 149.78125 599.90625 L 598.46875 599.042969 L 598.472656 600.90625 L 149.785156 601.769531 Z M 149.78125 599.90625 " fill-opacity="1" fill-rule="nonzero"/><path fill="#231f20" d="M 186.808594 562.679688 L 561.246094 561.960938 L 561.246094 563.824219 L 186.8125 564.542969 Z M 186.808594 562.679688 " fill-opacity="1" fill-rule="nonzero"/><path fill="#231f20" d="M 213.324219 536.03125 L 534.570312 535.414062 L 534.574219 537.277344 L 213.328125 537.894531 Z M 213.324219 536.03125 " fill-opacity="1" fill-rule="nonzero"/><path fill="#231f20" d="M 233.253906 515.996094 L 514.566406 515.457031 L 514.570312 517.324219 L 233.253906 517.863281 Z M 233.253906 515.996094 " fill-opacity="1" fill-rule="nonzero"/><path fill="#231f20" d="M 248.789062 500.414062 L 498.988281 499.933594 L 498.992188 501.796875 L 248.792969 502.277344 Z M 248.789062 500.414062 " fill-opacity="1" fill-rule="nonzero"/><path fill="#231f20" d="M 261.21875 487.910156 L 486.492188 487.476562 L 486.496094 489.34375 L 261.222656 489.777344 Z M 261.21875 487.910156 " fill-opacity="1" fill-rule="nonzero"/><path fill="#231f20" d="M 271.414062 477.6875 L 476.296875 477.292969 L 476.300781 479.160156 L 271.417969 479.554688 Z M 271.414062 477.6875 " fill-opacity="1" fill-rule="nonzero"/><path fill="#231f20" d="M 279.9375 469.230469 L 467.796875 468.671875 L 467.800781 470.539062 L 279.941406 471.097656 Z M 279.9375 469.230469 " fill-opacity="1" fill-rule="nonzero"/><path fill="#231f20" d="M 287.128906 461.992188 L 460.597656 461.476562 L 460.601562 463.339844 L 287.136719 463.855469 Z M 287.128906 461.992188 " fill-opacity="1" fill-rule="nonzero"/><path fill="#231f20" d="M 293.300781 455.800781 L 454.410156 455.320312 L 454.414062 457.1875 L 293.304688 457.664062 Z M 293.300781 455.800781 " fill-opacity="1" fill-rule="nonzero"/><path fill="#231f20" d="M 298.652344 450.429688 L 449.042969 449.984375 L 449.046875 451.847656 L 298.660156 452.296875 Z M 298.652344 450.429688 " fill-opacity="1" fill-rule="nonzero"/><path fill="#231f20" d="M 303.335938 445.714844 L 444.347656 445.296875 L 444.355469 447.164062 L 303.34375 447.582031 Z M 303.335938 445.714844 " fill-opacity="1" fill-rule="nonzero"/><path fill="#231f20" d="M 307.464844 441.5625 L 440.21875 441.167969 L 440.222656 443.035156 L 307.46875 443.429688 Z M 307.464844 441.5625 " fill-opacity="1" fill-rule="nonzero"/><path fill="#231f20" d="M 311.144531 437.878906 L 436.535156 437.503906 L 436.539062 439.371094 L 311.148438 439.742188 Z M 311.144531 437.878906 " fill-opacity="1" fill-rule="nonzero"/><path fill="#231f20" d="M 314.433594 434.566406 L 433.242188 434.214844 L 433.25 436.078125 L 314.441406 436.433594 Z M 314.433594 434.566406 " fill-opacity="1" fill-rule="nonzero"/><path fill="#231f20" d="M 317.390625 431.59375 L 430.269531 431.257812 L 430.273438 433.121094 L 317.394531 433.457031 Z M 317.390625 431.59375 " fill-opacity="1" fill-rule="nonzero"/><path fill="#231f20" d="M 320.066406 428.917969 L 427.578125 428.597656 L 427.582031 430.464844 L 320.070312 430.78125 Z M 320.066406 428.917969 " fill-opacity="1" fill-rule="nonzero"/><path fill="#231f20" d="M 322.5 426.464844 L 425.128906 426.160156 L 425.132812 428.027344 L 322.507812 428.332031 Z M 322.5 426.464844 " fill-opacity="1" fill-rule="nonzero"/><path fill="#231f20" d="M 324.714844 424.222656 L 422.882812 423.929688 L 422.890625 425.796875 L 324.71875 426.085938 Z M 324.714844 424.222656 " fill-opacity="1" fill-rule="nonzero"/><path fill="#231f20" d="M 415.660156 423.457031 L 417.042969 422.203125 L 711.707031 746.992188 L 710.324219 748.246094 Z M 415.660156 423.457031 " fill-opacity="1" fill-rule="nonzero"/><path fill="#231f20" d="M 411.167969 423.492188 L 412.617188 422.316406 L 676.1875 747.152344 L 674.742188 748.328125 Z M 411.167969 423.492188 " fill-opacity="1" fill-rule="nonzero"/><path fill="#231f20" d="M 406.644531 423.445312 L 408.160156 422.359375 L 640.691406 747.199219 L 639.175781 748.285156 Z M 406.644531 423.445312 " fill-opacity="1" fill-rule="nonzero"/><path fill="#231f20" d="M 402.125 423.457031 L 403.707031 422.472656 L 605.199219 747.355469 L 603.617188 748.339844 Z M 402.125 423.457031 " fill-opacity="1" fill-rule="nonzero"/><path fill="#231f20" d="M 397.605469 423.367188 L 399.257812 422.5 L 569.742188 747.382812 L 568.089844 748.25 Z M 397.605469 423.367188 " fill-opacity="1" fill-rule="nonzero"/><path fill="#231f20" d="M 393.117188 423.230469 L 394.832031 422.496094 L 534.34375 747.382812 L 532.628906 748.117188 Z M 393.117188 423.230469 " fill-opacity="1" fill-rule="nonzero"/><path fill="#231f20" d="M 388.5625 423.289062 L 390.332031 422.699219 L 498.808594 747.632812 L 497.042969 748.222656 Z M 388.5625 423.289062 " fill-opacity="1" fill-rule="nonzero"/><path fill="#231f20" d="M 384.109375 423.117188 L 385.925781 422.6875 L 463.476562 747.625 L 461.664062 748.058594 Z M 384.109375 423.117188 " fill-opacity="1" fill-rule="nonzero"/><path fill="#231f20" d="M 379.601562 423.09375 L 381.445312 422.828125 L 428.019531 747.796875 L 426.175781 748.058594 Z M 379.601562 423.09375 " fill-opacity="1" fill-rule="nonzero"/><path fill="#231f20" d="M 375.085938 423.046875 L 376.945312 422.960938 L 392.546875 747.949219 L 390.6875 748.039062 Z M 375.085938 423.046875 " fill-opacity="1" fill-rule="nonzero"/><path fill="#231f20" d="M 355.34375 748 L 370.605469 422.996094 L 372.46875 423.082031 L 357.207031 748.089844 Z M 355.34375 748 " fill-opacity="1" fill-rule="nonzero"/><path fill="#231f20" d="M 319.964844 747.871094 L 366.085938 422.835938 L 367.929688 423.097656 L 321.8125 748.132812 Z M 319.964844 747.871094 " fill-opacity="1" fill-rule="nonzero"/><path fill="#231f20" d="M 284.613281 747.851562 L 361.597656 422.777344 L 363.410156 423.210938 L 286.425781 748.28125 Z M 284.613281 747.851562 " fill-opacity="1" fill-rule="nonzero"/><path fill="#231f20" d="M 249.066406 747.6875 L 357.3125 422.699219 L 359.082031 423.289062 L 250.835938 748.277344 Z M 249.066406 747.6875 " fill-opacity="1" fill-rule="nonzero"/><path fill="#231f20" d="M 213.96875 747.808594 L 352.664062 422.632812 L 354.378906 423.367188 L 215.683594 748.539062 Z M 213.96875 747.808594 " fill-opacity="1" fill-rule="nonzero"/><path fill="#231f20" d="M 178.597656 747.792969 L 348.28125 422.636719 L 349.933594 423.5 L 180.25 748.65625 Z M 178.597656 747.792969 " fill-opacity="1" fill-rule="nonzero"/><path fill="#231f20" d="M 143.21875 747.640625 L 343.890625 422.558594 L 345.476562 423.539062 L 144.804688 748.621094 Z M 143.21875 747.640625 " fill-opacity="1" fill-rule="nonzero"/><path fill="#231f20" d="M 107.972656 747.679688 L 339.441406 422.535156 L 340.957031 423.617188 L 109.492188 748.761719 Z M 107.972656 747.679688 " fill-opacity="1" fill-rule="nonzero"/><path fill="#231f20" d="M 72.601562 747.597656 L 335.082031 422.601562 L 336.535156 423.773438 L 74.050781 748.769531 Z M 72.601562 747.597656 " fill-opacity="1" fill-rule="nonzero"/><path fill="#231f20" d="M 37.375 747.59375 L 330.617188 422.546875 L 332 423.796875 L 38.757812 748.84375 Z M 37.375 747.59375 " fill-opacity="1" fill-rule="nonzero"/><path fill="#231f20" d="M 328.1875 329.378906 L 0.601562 2.726562 L 748.800781 2.054688 L 747.21875 3.640625 L 423.058594 329.117188 L 422.667969 329.117188 Z M 5.113281 4.59375 L 328.953125 327.511719 L 422.277344 327.269531 L 744.308594 3.921875 Z M 5.113281 4.59375 " fill-opacity="1" fill-rule="nonzero"/><path fill="#231f20" d="M 95.230469 94.457031 L 654.9375 94.457031 L 654.9375 96.324219 L 95.230469 96.324219 Z M 95.230469 94.457031 " fill-opacity="1" fill-rule="nonzero"/><path fill="#231f20" d="M 150.933594 150.429688 L 599.621094 149.570312 L 599.625 151.433594 L 150.9375 152.296875 Z M 150.933594 150.429688 " fill-opacity="1" fill-rule="nonzero"/><path fill="#231f20" d="M 188.160156 187.511719 L 562.59375 186.792969 L 562.597656 188.660156 L 188.164062 189.378906 Z M 188.160156 187.511719 " fill-opacity="1" fill-rule="nonzero"/><path fill="#231f20" d="M 214.792969 214.058594 L 536.042969 213.441406 L 536.046875 215.308594 L 214.796875 215.925781 Z M 214.792969 214.058594 " fill-opacity="1" fill-rule="nonzero"/><path fill="#231f20" d="M 234.816406 234.015625 L 516.132812 233.476562 L 516.136719 235.339844 L 234.820312 235.882812 Z M 234.816406 234.015625 " fill-opacity="1" fill-rule="nonzero"/><path fill="#231f20" d="M 250.394531 249.542969 L 500.597656 249.0625 L 500.601562 250.925781 L 250.398438 251.40625 Z M 250.394531 249.542969 " fill-opacity="1" fill-rule="nonzero"/><path fill="#231f20" d="M 262.890625 261.996094 L 488.167969 261.5625 L 488.171875 263.429688 L 262.894531 263.859375 Z M 262.890625 261.996094 " fill-opacity="1" fill-rule="nonzero"/><path fill="#231f20" d="M 273.109375 272.179688 L 477.988281 271.785156 L 477.992188 273.652344 L 273.113281 274.042969 Z M 273.109375 272.179688 " fill-opacity="1" fill-rule="nonzero"/><path fill="#231f20" d="M 281.652344 280.730469 L 469.511719 280.171875 L 469.515625 282.039062 L 281.65625 282.597656 Z M 281.652344 280.730469 " fill-opacity="1" fill-rule="nonzero"/><path fill="#231f20" d="M 288.867188 287.925781 L 462.335938 287.414062 L 462.34375 289.277344 L 288.875 289.792969 Z M 288.867188 287.925781 " fill-opacity="1" fill-rule="nonzero"/><path fill="#231f20" d="M 295.039062 294.082031 L 456.148438 293.605469 L 456.152344 295.46875 L 295.046875 295.949219 Z M 295.039062 294.082031 " fill-opacity="1" fill-rule="nonzero"/><path fill="#231f20" d="M 300.40625 299.421875 L 450.792969 298.972656 L 450.800781 300.839844 L 300.410156 301.285156 Z M 300.40625 299.421875 " fill-opacity="1" fill-rule="nonzero"/><path fill="#231f20" d="M 305.097656 304.105469 L 446.128906 303.6875 L 446.132812 305.554688 L 305.105469 305.972656 Z M 305.097656 304.105469 " fill-opacity="1" fill-rule="nonzero"/><path fill="#231f20" d="M 309.25 308.234375 L 442.003906 307.839844 L 442.007812 309.707031 L 309.253906 310.101562 Z M 309.25 308.234375 " fill-opacity="1" fill-rule="nonzero"/><path fill="#231f20" d="M 312.933594 311.898438 L 438.324219 311.527344 L 438.328125 313.390625 L 312.9375 313.761719 Z M 312.933594 311.898438 " fill-opacity="1" fill-rule="nonzero"/><path fill="#231f20" d="M 316.207031 315.191406 L 435.015625 314.835938 L 435.019531 316.703125 L 316.210938 317.054688 Z M 316.207031 315.191406 " fill-opacity="1" fill-rule="nonzero"/><path fill="#231f20" d="M 319.195312 318.148438 L 432.078125 317.8125 L 432.082031 319.675781 L 319.203125 320.011719 Z M 319.195312 318.148438 " fill-opacity="1" fill-rule="nonzero"/><path fill="#231f20" d="M 321.890625 320.804688 L 429.402344 320.488281 L 429.40625 322.351562 L 321.894531 322.671875 Z M 321.890625 320.804688 " fill-opacity="1" fill-rule="nonzero"/><path fill="#231f20" d="M 324.320312 323.242188 L 426.945312 322.9375 L 426.953125 324.804688 L 324.324219 325.105469 Z M 324.320312 323.242188 " fill-opacity="1" fill-rule="nonzero"/><path fill="#231f20" d="M 326.546875 325.472656 L 424.714844 325.183594 L 424.722656 327.046875 L 326.550781 327.339844 Z M 326.546875 325.472656 " fill-opacity="1" fill-rule="nonzero"/><path fill="#231f20" d="M 37.71875 4.242188 L 39.097656 2.988281 L 333.761719 327.78125 L 332.382812 329.035156 Z M 37.71875 4.242188 " fill-opacity="1" fill-rule="nonzero"/><path fill="#231f20" d="M 73.238281 4.195312 L 74.683594 3.019531 L 338.257812 327.855469 L 336.808594 329.03125 Z M 73.238281 4.195312 " fill-opacity="1" fill-rule="nonzero"/><path fill="#231f20" d="M 108.714844 4.121094 L 110.230469 3.03125 L 342.765625 327.875 L 341.25 328.960938 Z M 108.714844 4.121094 " fill-opacity="1" fill-rule="nonzero"/><path fill="#231f20" d="M 145.101562 3.152344 L 146.6875 2.167969 L 348.0625 327.121094 L 346.480469 328.105469 Z M 145.101562 3.152344 " fill-opacity="1" fill-rule="nonzero"/><path fill="#231f20" d="M 179.675781 3.953125 L 181.324219 3.085938 L 351.808594 327.972656 L 350.15625 328.839844 Z M 179.675781 3.953125 " fill-opacity="1" fill-rule="nonzero"/><path fill="#231f20" d="M 215.125 3.824219 L 216.835938 3.085938 L 356.351562 327.972656 L 354.636719 328.710938 Z M 215.125 3.824219 " fill-opacity="1" fill-rule="nonzero"/><path fill="#231f20" d="M 250.570312 3.769531 L 252.339844 3.175781 L 360.816406 328.109375 L 359.050781 328.699219 Z M 250.570312 3.769531 " fill-opacity="1" fill-rule="nonzero"/><path fill="#231f20" d="M 286.007812 3.601562 L 287.820312 3.167969 L 365.375 328.105469 L 363.558594 328.539062 Z M 286.007812 3.601562 " fill-opacity="1" fill-rule="nonzero"/><path fill="#231f20" d="M 321.425781 3.507812 L 323.273438 3.242188 L 369.847656 328.210938 L 368 328.476562 Z M 321.425781 3.507812 " fill-opacity="1" fill-rule="nonzero"/><path fill="#231f20" d="M 356.847656 3.417969 L 358.707031 3.328125 L 374.3125 328.316406 L 372.449219 328.40625 Z M 356.847656 3.417969 " fill-opacity="1" fill-rule="nonzero"/><path fill="#231f20" d="M 377.011719 328.285156 L 392.273438 3.277344 L 394.136719 3.367188 L 378.871094 328.371094 Z M 377.011719 328.285156 " fill-opacity="1" fill-rule="nonzero"/><path fill="#231f20" d="M 381.449219 328.160156 L 427.570312 3.128906 L 429.417969 3.390625 L 383.296875 328.425781 Z M 381.449219 328.160156 " fill-opacity="1" fill-rule="nonzero"/><path fill="#231f20" d="M 385.992188 328.101562 L 462.980469 3.03125 L 464.792969 3.460938 L 387.808594 328.53125 Z M 385.992188 328.101562 " fill-opacity="1" fill-rule="nonzero"/><path fill="#231f20" d="M 390.28125 327.910156 L 498.527344 2.917969 L 500.296875 3.507812 L 392.050781 328.5 Z M 390.28125 327.910156 " fill-opacity="1" fill-rule="nonzero"/><path fill="#231f20" d="M 395.042969 327.941406 L 533.738281 2.765625 L 535.453125 3.5 L 396.757812 328.675781 Z M 395.042969 327.941406 " fill-opacity="1" fill-rule="nonzero"/><path fill="#231f20" d="M 399.519531 327.886719 L 569.203125 2.734375 L 570.855469 3.597656 L 401.171875 328.75 Z M 399.519531 327.886719 " fill-opacity="1" fill-rule="nonzero"/><path fill="#231f20" d="M 403.925781 327.710938 L 604.597656 2.628906 L 606.183594 3.609375 L 405.511719 328.691406 Z M 403.925781 327.710938 " fill-opacity="1" fill-rule="nonzero"/><path fill="#231f20" d="M 408.46875 327.703125 L 639.9375 2.554688 L 641.453125 3.636719 L 409.988281 328.785156 Z M 408.46875 327.703125 " fill-opacity="1" fill-rule="nonzero"/><path fill="#231f20" d="M 412.882812 327.554688 L 675.363281 2.554688 L 676.816406 3.726562 L 414.332031 328.726562 Z M 412.882812 327.554688 " fill-opacity="1" fill-rule="nonzero"/><path fill="#231f20" d="M 417.425781 327.507812 L 710.671875 2.460938 L 712.054688 3.710938 L 418.8125 328.757812 Z M 417.425781 327.507812 " fill-opacity="1" fill-rule="nonzero"/><g clip-path="url(#328d540c87)"><path fill="#231f20" d="M 749.210938 749.550781 L 747.609375 747.964844 L 422.296875 423.644531 L 422.035156 328.726562 L 422.316406 328.464844 L 748.558594 0.992188 Z M 424.160156 422.878906 L 747.328125 745.054688 L 746.675781 5.488281 L 423.917969 329.507812 Z M 424.160156 422.878906 " fill-opacity="1" fill-rule="nonzero"/></g><path fill="#231f20" d="M 654.597656 95.695312 L 656.460938 95.691406 L 657.242188 655.675781 L 655.378906 655.679688 Z M 654.597656 95.695312 " fill-opacity="1" fill-rule="nonzero"/><path fill="#231f20" d="M 599.113281 151.371094 L 600.976562 151.367188 L 601.761719 600.28125 L 599.898438 600.28125 Z M 599.113281 151.371094 " fill-opacity="1" fill-rule="nonzero"/><path fill="#231f20" d="M 561.980469 188.640625 L 563.847656 188.636719 L 564.566406 563.261719 L 562.699219 563.261719 Z M 561.980469 188.640625 " fill-opacity="1" fill-rule="nonzero"/><path fill="#231f20" d="M 534.765625 216.648438 L 536.628906 216.648438 L 536.628906 538.054688 L 534.765625 538.054688 Z M 534.765625 216.648438 " fill-opacity="1" fill-rule="nonzero"/><path fill="#231f20" d="M 515.507812 235.273438 L 517.371094 235.269531 L 518.011719 516.726562 L 516.144531 516.730469 Z M 515.507812 235.273438 " fill-opacity="1" fill-rule="nonzero"/><path fill="#231f20" d="M 499.921875 250.921875 L 501.785156 250.917969 L 502.351562 501.242188 L 500.488281 501.246094 Z M 499.921875 250.921875 " fill-opacity="1" fill-rule="nonzero"/><path fill="#231f20" d="M 487.539062 263.363281 L 489.40625 263.359375 L 489.953125 488.746094 L 488.089844 488.75 Z M 487.539062 263.363281 " fill-opacity="1" fill-rule="nonzero"/><path fill="#231f20" d="M 477.332031 273.609375 L 479.195312 273.605469 L 479.695312 478.585938 L 477.832031 478.59375 Z M 477.332031 273.609375 " fill-opacity="1" fill-rule="nonzero"/><path fill="#231f20" d="M 468.832031 282.171875 L 470.695312 282.167969 L 471.15625 470.121094 L 469.289062 470.125 Z M 468.832031 282.171875 " fill-opacity="1" fill-rule="nonzero"/><path fill="#231f20" d="M 461.617188 289.40625 L 463.480469 289.402344 L 463.902344 462.957031 L 462.039062 462.960938 Z M 461.617188 289.40625 " fill-opacity="1" fill-rule="nonzero"/><path fill="#231f20" d="M 455.511719 295.515625 L 457.375 295.511719 L 457.796875 456.703125 L 455.933594 456.707031 Z M 455.511719 295.515625 " fill-opacity="1" fill-rule="nonzero"/><path fill="#231f20" d="M 450.15625 300.882812 L 452.019531 300.878906 L 452.414062 451.34375 L 450.550781 451.347656 Z M 450.15625 300.882812 " fill-opacity="1" fill-rule="nonzero"/><path fill="#231f20" d="M 445.46875 305.597656 L 447.335938 305.59375 L 447.703125 446.675781 L 445.839844 446.679688 Z M 445.46875 305.597656 " fill-opacity="1" fill-rule="nonzero"/><path fill="#231f20" d="M 441.324219 309.765625 L 443.1875 309.761719 L 443.535156 442.582031 L 441.671875 442.585938 Z M 441.324219 309.765625 " fill-opacity="1" fill-rule="nonzero"/><path fill="#231f20" d="M 437.660156 313.46875 L 439.523438 313.464844 L 439.855469 438.917969 L 437.988281 438.921875 Z M 437.660156 313.46875 " fill-opacity="1" fill-rule="nonzero"/><path fill="#231f20" d="M 434.351562 316.78125 L 436.214844 316.773438 L 436.527344 435.644531 L 434.664062 435.648438 Z M 434.351562 316.78125 " fill-opacity="1" fill-rule="nonzero"/><path fill="#231f20" d="M 431.375 319.753906 L 433.242188 319.75 L 433.535156 432.683594 L 431.671875 432.691406 Z M 431.375 319.753906 " fill-opacity="1" fill-rule="nonzero"/><path fill="#231f20" d="M 428.699219 322.445312 L 430.5625 322.441406 L 430.84375 430.007812 L 428.980469 430.011719 Z M 428.699219 322.445312 " fill-opacity="1" fill-rule="nonzero"/><path fill="#231f20" d="M 426.261719 324.894531 L 428.128906 324.890625 L 428.394531 427.570312 L 426.53125 427.574219 Z M 426.261719 324.894531 " fill-opacity="1" fill-rule="nonzero"/><path fill="#231f20" d="M 424.105469 327.027344 L 425.96875 327.023438 L 426.246094 425.246094 L 424.378906 425.25 Z M 424.105469 327.027344 " fill-opacity="1" fill-rule="nonzero"/><path fill="#231f20" d="M 422.375 332.890625 L 747 38.082031 L 748.253906 39.460938 L 423.625 334.273438 Z M 422.375 332.890625 " fill-opacity="1" fill-rule="nonzero"/><path fill="#231f20" d="M 422.375 337.355469 L 747.140625 73.765625 L 748.316406 75.214844 L 423.550781 338.804688 Z M 422.375 337.355469 " fill-opacity="1" fill-rule="nonzero"/><path fill="#231f20" d="M 422.488281 341.777344 L 747.128906 109.070312 L 748.214844 110.589844 L 423.574219 343.296875 Z M 422.488281 341.777344 " fill-opacity="1" fill-rule="nonzero"/><path fill="#231f20" d="M 422.53125 346.253906 L 747.214844 144.605469 L 748.195312 146.191406 L 423.511719 347.839844 Z M 422.53125 346.253906 " fill-opacity="1" fill-rule="nonzero"/><path fill="#231f20" d="M 422.632812 350.734375 L 747.296875 180.050781 L 748.164062 181.703125 L 423.5 352.382812 Z M 422.632812 350.734375 " fill-opacity="1" fill-rule="nonzero"/><path fill="#231f20" d="M 422.710938 355.179688 L 747.414062 215.542969 L 748.148438 217.253906 L 423.449219 356.894531 Z M 422.710938 355.179688 " fill-opacity="1" fill-rule="nonzero"/><path fill="#231f20" d="M 422.722656 359.570312 L 747.566406 251.265625 L 748.15625 253.035156 L 423.3125 361.339844 Z M 422.722656 359.570312 " fill-opacity="1" fill-rule="nonzero"/><path fill="#231f20" d="M 422.863281 364.113281 L 747.625 286.464844 L 748.058594 288.28125 L 423.292969 365.925781 Z M 422.863281 364.113281 " fill-opacity="1" fill-rule="nonzero"/><path fill="#231f20" d="M 422.949219 368.476562 L 747.769531 321.992188 L 748.035156 323.839844 L 423.210938 370.324219 Z M 422.949219 368.476562 " fill-opacity="1" fill-rule="nonzero"/><path fill="#231f20" d="M 423.019531 373.054688 L 747.847656 357.503906 L 747.9375 359.367188 L 423.109375 374.917969 Z M 423.019531 373.054688 " fill-opacity="1" fill-rule="nonzero"/><path fill="#231f20" d="M 423.0625 379.371094 L 423.152344 377.507812 L 747.988281 392.835938 L 747.902344 394.699219 Z M 423.0625 379.371094 " fill-opacity="1" fill-rule="nonzero"/><path fill="#231f20" d="M 422.976562 383.847656 L 423.242188 382 L 748.09375 428.257812 L 747.832031 430.101562 Z M 422.976562 383.847656 " fill-opacity="1" fill-rule="nonzero"/><path fill="#231f20" d="M 422.953125 388.355469 L 423.382812 386.539062 L 748.253906 463.734375 L 747.824219 465.546875 Z M 422.953125 388.355469 " fill-opacity="1" fill-rule="nonzero"/><path fill="#231f20" d="M 422.832031 392.734375 L 423.421875 390.964844 L 748.324219 499.035156 L 747.734375 500.808594 Z M 422.832031 392.734375 " fill-opacity="1" fill-rule="nonzero"/><path fill="#231f20" d="M 422.8125 397.25 L 423.546875 395.535156 L 748.460938 534.527344 L 747.730469 536.242188 Z M 422.8125 397.25 " fill-opacity="1" fill-rule="nonzero"/><path fill="#231f20" d="M 422.777344 401.71875 L 423.640625 400.066406 L 748.574219 569.949219 L 747.710938 571.605469 Z M 422.777344 401.71875 " fill-opacity="1" fill-rule="nonzero"/><path fill="#231f20" d="M 422.6875 406.117188 L 423.667969 404.527344 L 748.621094 605.246094 L 747.640625 606.832031 Z M 422.6875 406.117188 " fill-opacity="1" fill-rule="nonzero"/><path fill="#231f20" d="M 422.667969 410.585938 L 423.75 409.066406 L 748.730469 640.648438 L 747.648438 642.167969 Z M 422.667969 410.585938 " fill-opacity="1" fill-rule="nonzero"/><path fill="#231f20" d="M 422.59375 414.945312 L 423.765625 413.496094 L 748.78125 675.882812 L 747.613281 677.335938 Z M 422.59375 414.945312 " fill-opacity="1" fill-rule="nonzero"/><path fill="#231f20" d="M 422.585938 419.417969 L 423.835938 418.035156 L 748.867188 711.253906 L 747.621094 712.640625 Z M 422.585938 419.417969 " fill-opacity="1" fill-rule="nonzero"/><g clip-path="url(#f78a155904)"><path fill="#231f20" d="M 1.476562 749.566406 L 0.789062 0.992188 L 2.390625 2.578125 L 327.703125 326.898438 L 327.964844 421.816406 L 327.683594 422.097656 Z M 2.671875 5.488281 L 3.324219 745.054688 L 326.082031 421.050781 L 325.839844 327.679688 Z M 2.671875 5.488281 " fill-opacity="1" fill-rule="nonzero"/></g><path fill="#231f20" d="M 92.746094 94.914062 L 94.609375 94.910156 L 95.390625 654.894531 L 93.527344 654.898438 Z M 92.746094 94.914062 " fill-opacity="1" fill-rule="nonzero"/><path fill="#231f20" d="M 148.261719 150.253906 L 150.125 150.25 L 150.910156 599.164062 L 149.042969 599.167969 Z M 148.261719 150.253906 " fill-opacity="1" fill-rule="nonzero"/><path fill="#231f20" d="M 185.402344 187.3125 L 187.265625 187.308594 L 187.984375 561.929688 L 186.121094 561.933594 Z M 185.402344 187.3125 " fill-opacity="1" fill-rule="nonzero"/><path fill="#231f20" d="M 212.054688 213.824219 L 213.917969 213.820312 L 214.589844 535.226562 L 212.726562 535.230469 Z M 212.054688 213.824219 " fill-opacity="1" fill-rule="nonzero"/><path fill="#231f20" d="M 232.0625 233.773438 L 233.929688 233.769531 L 234.566406 515.226562 L 232.703125 515.230469 Z M 232.0625 233.773438 " fill-opacity="1" fill-rule="nonzero"/><path fill="#231f20" d="M 247.628906 249.3125 L 249.492188 249.308594 L 250.058594 499.632812 L 248.195312 499.636719 Z M 247.628906 249.3125 " fill-opacity="1" fill-rule="nonzero"/><path fill="#231f20" d="M 259.25 262.605469 L 261.113281 262.605469 L 261.113281 487.992188 L 259.25 487.992188 Z M 259.25 262.605469 " fill-opacity="1" fill-rule="nonzero"/><path fill="#231f20" d="M 270.320312 271.949219 L 272.183594 271.945312 L 272.683594 476.929688 L 270.820312 476.933594 Z M 270.320312 271.949219 " fill-opacity="1" fill-rule="nonzero"/><path fill="#231f20" d="M 278.824219 280.453125 L 280.6875 280.449219 L 281.148438 468.402344 L 279.28125 468.410156 Z M 278.824219 280.453125 " fill-opacity="1" fill-rule="nonzero"/><path fill="#231f20" d="M 286.035156 287.65625 L 287.902344 287.648438 L 288.324219 461.207031 L 286.460938 461.210938 Z M 286.035156 287.65625 " fill-opacity="1" fill-rule="nonzero"/><path fill="#231f20" d="M 292.273438 293.78125 L 294.136719 293.777344 L 294.558594 454.964844 L 292.695312 454.96875 Z M 292.273438 293.78125 " fill-opacity="1" fill-rule="nonzero"/><path fill="#231f20" d="M 297.636719 299.140625 L 299.5 299.132812 L 299.894531 449.597656 L 298.03125 449.601562 Z M 297.636719 299.140625 " fill-opacity="1" fill-rule="nonzero"/><path fill="#231f20" d="M 302.328125 303.84375 L 304.191406 303.839844 L 304.5625 444.921875 L 302.699219 444.929688 Z M 302.328125 303.84375 " fill-opacity="1" fill-rule="nonzero"/><path fill="#231f20" d="M 306.460938 307.996094 L 308.324219 307.988281 L 308.671875 440.808594 L 306.808594 440.8125 Z M 306.460938 307.996094 " fill-opacity="1" fill-rule="nonzero"/><path fill="#231f20" d="M 310.140625 311.675781 L 312.007812 311.671875 L 312.335938 437.125 L 310.46875 437.128906 Z M 310.140625 311.675781 " fill-opacity="1" fill-rule="nonzero"/><path fill="#231f20" d="M 313.429688 314.96875 L 315.296875 314.964844 L 315.605469 433.832031 L 313.742188 433.839844 Z M 313.429688 314.96875 " fill-opacity="1" fill-rule="nonzero"/><path fill="#231f20" d="M 316.402344 317.929688 L 318.269531 317.921875 L 318.5625 430.859375 L 316.699219 430.863281 Z M 316.402344 317.929688 " fill-opacity="1" fill-rule="nonzero"/><path fill="#231f20" d="M 319.078125 320.625 L 320.941406 320.621094 L 321.222656 428.1875 L 319.359375 428.191406 Z M 319.078125 320.625 " fill-opacity="1" fill-rule="nonzero"/><path fill="#231f20" d="M 321.523438 323.0625 L 323.390625 323.058594 L 323.65625 425.734375 L 321.792969 425.742188 Z M 321.523438 323.0625 " fill-opacity="1" fill-rule="nonzero"/><path fill="#231f20" d="M 323.824219 325.21875 L 325.6875 325.214844 L 325.960938 423.4375 L 324.097656 423.441406 Z M 323.824219 325.21875 " fill-opacity="1" fill-rule="nonzero"/><path fill="#231f20" d="M 1.757812 711.039062 L 326.382812 416.230469 L 327.636719 417.609375 L 3.011719 712.421875 Z M 1.757812 711.039062 " fill-opacity="1" fill-rule="nonzero"/><path fill="#231f20" d="M 1.691406 675.417969 L 326.457031 411.828125 L 327.632812 413.277344 L 2.867188 676.867188 Z M 1.691406 675.417969 " fill-opacity="1" fill-rule="nonzero"/><path fill="#231f20" d="M 1.808594 639.871094 L 326.449219 407.164062 L 327.535156 408.679688 L 2.894531 641.386719 Z M 1.808594 639.871094 " fill-opacity="1" fill-rule="nonzero"/><path fill="#231f20" d="M 1.816406 604.308594 L 326.5 402.660156 L 327.484375 404.246094 L 2.800781 605.894531 Z M 1.816406 604.308594 " fill-opacity="1" fill-rule="nonzero"/><path fill="#231f20" d="M 1.871094 568.777344 L 326.535156 398.097656 L 327.402344 399.75 L 2.738281 570.429688 Z M 1.871094 568.777344 " fill-opacity="1" fill-rule="nonzero"/><path fill="#231f20" d="M 1.886719 533.246094 L 326.585938 393.605469 L 327.324219 395.320312 L 2.621094 534.957031 Z M 1.886719 533.246094 " fill-opacity="1" fill-rule="nonzero"/><path fill="#231f20" d="M 1.800781 497.609375 L 326.644531 389.304688 L 327.234375 391.074219 L 2.390625 499.378906 Z M 1.800781 497.609375 " fill-opacity="1" fill-rule="nonzero"/><path fill="#231f20" d="M 1.933594 462.238281 L 326.695312 384.589844 L 327.128906 386.40625 L 2.367188 464.054688 Z M 1.933594 462.238281 " fill-opacity="1" fill-rule="nonzero"/><path fill="#231f20" d="M 1.984375 426.6875 L 326.808594 380.203125 L 327.070312 382.050781 L 2.25 428.53125 Z M 1.984375 426.6875 " fill-opacity="1" fill-rule="nonzero"/><path fill="#231f20" d="M 1.988281 391.269531 L 326.816406 375.714844 L 326.90625 377.578125 L 2.078125 393.132812 Z M 1.988281 391.269531 " fill-opacity="1" fill-rule="nonzero"/><path fill="#231f20" d="M 2.011719 357.722656 L 2.097656 355.859375 L 326.9375 371.183594 L 326.851562 373.046875 Z M 2.011719 357.722656 " fill-opacity="1" fill-rule="nonzero"/><path fill="#231f20" d="M 1.882812 322.289062 L 2.148438 320.441406 L 327 366.699219 L 326.738281 368.546875 Z M 1.882812 322.289062 " fill-opacity="1" fill-rule="nonzero"/><path fill="#231f20" d="M 1.789062 286.886719 L 2.21875 285.070312 L 327.089844 362.265625 L 326.65625 364.082031 Z M 1.789062 286.886719 " fill-opacity="1" fill-rule="nonzero"/><path fill="#231f20" d="M 1.660156 251.449219 L 2.246094 249.679688 L 327.148438 357.75 L 326.5625 359.519531 Z M 1.660156 251.449219 " fill-opacity="1" fill-rule="nonzero"/><path fill="#231f20" d="M 1.5625 216.066406 L 2.292969 214.351562 L 327.210938 353.34375 L 326.476562 355.058594 Z M 1.5625 216.066406 " fill-opacity="1" fill-rule="nonzero"/><path fill="#231f20" d="M 1.464844 180.675781 L 2.328125 179.023438 L 327.261719 348.90625 L 326.398438 350.5625 Z M 1.464844 180.675781 " fill-opacity="1" fill-rule="nonzero"/><path fill="#231f20" d="M 1.378906 145.273438 L 2.355469 143.6875 L 327.3125 344.40625 L 326.332031 345.992188 Z M 1.378906 145.273438 " fill-opacity="1" fill-rule="nonzero"/><path fill="#231f20" d="M 1.285156 109.917969 L 2.363281 108.398438 L 327.347656 339.980469 L 326.265625 341.5 Z M 1.285156 109.917969 " fill-opacity="1" fill-rule="nonzero"/><path fill="#231f20" d="M 1.199219 74.546875 L 2.367188 73.09375 L 327.386719 335.480469 L 326.214844 336.933594 Z M 1.199219 74.546875 " fill-opacity="1" fill-rule="nonzero"/><path fill="#231f20" d="M 1.140625 39.21875 L 2.386719 37.832031 L 327.421875 331.050781 L 326.175781 332.4375 Z M 1.140625 39.21875 " fill-opacity="1" fill-rule="nonzero"/></g></g></g></svg>