<svg xmlns="http://www.w3.org/2000/svg" xmlns:xlink="http://www.w3.org/1999/xlink" width="3840" zoomAndPan="magnify" viewBox="0 0 2880 1619.99993" height="2160" preserveAspectRatio="xMidYMid meet" version="1.0"><defs><clipPath id="fc69a24b1d"><path d="M 1642.03125 0 L 1950 0 L 1950 308 L 1642.03125 308 Z M 1642.03125 0 " clip-rule="nonzero"/></clipPath><clipPath id="e427c5da76"><path d="M 1642.03125 327 L 1950 327 L 1950 636 L 1642.03125 636 Z M 1642.03125 327 " clip-rule="nonzero"/></clipPath><clipPath id="d70e8227db"><path d="M 1642.03125 656 L 1950 656 L 1950 964 L 1642.03125 964 Z M 1642.03125 656 " clip-rule="nonzero"/></clipPath><clipPath id="b2011ccba1"><path d="M 1642.03125 984 L 1950 984 L 1950 1292 L 1642.03125 1292 Z M 1642.03125 984 " clip-rule="nonzero"/></clipPath><clipPath id="7e2042ecd3"><path d="M 1642.03125 1312 L 1950 1312 L 1950 1620 L 1642.03125 1620 Z M 1642.03125 1312 " clip-rule="nonzero"/></clipPath></defs><rect x="-288" width="3456" fill="#ffffff" y="-161.999993" height="1943.999916" fill-opacity="1"/><rect x="-288" width="3456" fill="#ffffff" y="-161.999993" height="1943.999916" fill-opacity="1"/><rect x="-288" width="3456" fill="#ffffff" y="-161.999993" height="1943.999916" fill-opacity="1"/><path fill="#92aa68" d="M 0.265625 0 L 307.578125 0 L 307.578125 307.3125 L 0.265625 307.3125 Z M 0.265625 0 " fill-opacity="1" fill-rule="nonzero"/><path fill="#92aa68" d="M 328.171875 0 L 635.484375 0 L 635.484375 307.3125 L 328.171875 307.3125 Z M 328.171875 0 " fill-opacity="1" fill-rule="nonzero"/><path fill="#92aa68" d="M 656.078125 0 L 963.394531 0 L 963.394531 307.3125 L 656.078125 307.3125 Z M 656.078125 0 " fill-opacity="1" fill-rule="nonzero"/><path fill="#92aa68" d="M 984.515625 0 L 1291.828125 0 L 1291.828125 307.3125 L 984.515625 307.3125 Z M 984.515625 0 " fill-opacity="1" fill-rule="nonzero"/><path fill="#92aa68" d="M 1312.421875 0 L 1619.734375 0 L 1619.734375 307.3125 L 1312.421875 307.3125 Z M 1312.421875 0 " fill-opacity="1" fill-rule="nonzero"/><path fill="#92aa68" d="M 0.265625 327.90625 L 307.578125 327.90625 L 307.578125 635.222656 L 0.265625 635.222656 Z M 0.265625 327.90625 " fill-opacity="1" fill-rule="nonzero"/><path fill="#92aa68" d="M 328.171875 327.90625 L 635.484375 327.90625 L 635.484375 635.222656 L 328.171875 635.222656 Z M 328.171875 327.90625 " fill-opacity="1" fill-rule="nonzero"/><path fill="#92aa68" d="M 656.078125 327.90625 L 963.394531 327.90625 L 963.394531 635.222656 L 656.078125 635.222656 Z M 656.078125 327.90625 " fill-opacity="1" fill-rule="nonzero"/><path fill="#92aa68" d="M 984.515625 327.90625 L 1291.828125 327.90625 L 1291.828125 635.222656 L 984.515625 635.222656 Z M 984.515625 327.90625 " fill-opacity="1" fill-rule="nonzero"/><path fill="#92aa68" d="M 1312.421875 327.90625 L 1619.734375 327.90625 L 1619.734375 635.222656 L 1312.421875 635.222656 Z M 1312.421875 327.90625 " fill-opacity="1" fill-rule="nonzero"/><path fill="#92aa68" d="M 0.265625 656.34375 L 307.578125 656.34375 L 307.578125 963.65625 L 0.265625 963.65625 Z M 0.265625 656.34375 " fill-opacity="1" fill-rule="nonzero"/><path fill="#92aa68" d="M 328.171875 656.34375 L 635.484375 656.34375 L 635.484375 963.65625 L 328.171875 963.65625 Z M 328.171875 656.34375 " fill-opacity="1" fill-rule="nonzero"/><path fill="#92aa68" d="M 656.078125 656.34375 L 963.394531 656.34375 L 963.394531 963.65625 L 656.078125 963.65625 Z M 656.078125 656.34375 " fill-opacity="1" fill-rule="nonzero"/><path fill="#92aa68" d="M 984.515625 656.34375 L 1291.828125 656.34375 L 1291.828125 963.65625 L 984.515625 963.65625 Z M 984.515625 656.34375 " fill-opacity="1" fill-rule="nonzero"/><path fill="#92aa68" d="M 1312.421875 656.34375 L 1619.734375 656.34375 L 1619.734375 963.65625 L 1312.421875 963.65625 Z M 1312.421875 656.34375 " fill-opacity="1" fill-rule="nonzero"/><path fill="#92aa68" d="M 0.265625 984.25 L 307.578125 984.25 L 307.578125 1291.5625 L 0.265625 1291.5625 Z M 0.265625 984.25 " fill-opacity="1" fill-rule="nonzero"/><path fill="#92aa68" d="M 328.171875 984.25 L 635.484375 984.25 L 635.484375 1291.5625 L 328.171875 1291.5625 Z M 328.171875 984.25 " fill-opacity="1" fill-rule="nonzero"/><path fill="#92aa68" d="M 656.078125 984.25 L 963.394531 984.25 L 963.394531 1291.5625 L 656.078125 1291.5625 Z M 656.078125 984.25 " fill-opacity="1" fill-rule="nonzero"/><path fill="#92aa68" d="M 984.515625 984.25 L 1291.828125 984.25 L 1291.828125 1291.5625 L 984.515625 1291.5625 Z M 984.515625 984.25 " fill-opacity="1" fill-rule="nonzero"/><path fill="#92aa68" d="M 1312.421875 984.25 L 1619.734375 984.25 L 1619.734375 1291.5625 L 1312.421875 1291.5625 Z M 1312.421875 984.25 " fill-opacity="1" fill-rule="nonzero"/><path fill="#92aa68" d="M 0.265625 1312.6875 L 307.578125 1312.6875 L 307.578125 1620 L 0.265625 1620 Z M 0.265625 1312.6875 " fill-opacity="1" fill-rule="nonzero"/><path fill="#92aa68" d="M 328.171875 1312.6875 L 635.484375 1312.6875 L 635.484375 1620 L 328.171875 1620 Z M 328.171875 1312.6875 " fill-opacity="1" fill-rule="nonzero"/><path fill="#92aa68" d="M 656.078125 1312.6875 L 963.394531 1312.6875 L 963.394531 1620 L 656.078125 1620 Z M 656.078125 1312.6875 " fill-opacity="1" fill-rule="nonzero"/><path fill="#92aa68" d="M 984.515625 1312.6875 L 1291.828125 1312.6875 L 1291.828125 1620 L 984.515625 1620 Z M 984.515625 1312.6875 " fill-opacity="1" fill-rule="nonzero"/><path fill="#92aa68" d="M 1312.421875 1312.6875 L 1619.734375 1312.6875 L 1619.734375 1620 L 1312.421875 1620 Z M 1312.421875 1312.6875 " fill-opacity="1" fill-rule="nonzero"/><g clip-path="url(#fc69a24b1d)"><path fill="#92aa68" d="M 1642.292969 0 L 1949.605469 0 L 1949.605469 307.3125 L 1642.292969 307.3125 Z M 1642.292969 0 " fill-opacity="1" fill-rule="nonzero"/></g><path fill="#92aa68" d="M 1970.199219 0 L 2277.515625 0 L 2277.515625 307.3125 L 1970.199219 307.3125 Z M 1970.199219 0 " fill-opacity="1" fill-rule="nonzero"/><path fill="#92aa68" d="M 2298.109375 0 L 2605.421875 0 L 2605.421875 307.3125 L 2298.109375 307.3125 Z M 2298.109375 0 " fill-opacity="1" fill-rule="nonzero"/><path fill="#92aa68" d="M 2626.542969 0 L 2933.859375 0 L 2933.859375 307.3125 L 2626.542969 307.3125 Z M 2626.542969 0 " fill-opacity="1" fill-rule="nonzero"/><g clip-path="url(#e427c5da76)"><path fill="#92aa68" d="M 1642.292969 327.90625 L 1949.605469 327.90625 L 1949.605469 635.222656 L 1642.292969 635.222656 Z M 1642.292969 327.90625 " fill-opacity="1" fill-rule="nonzero"/></g><path fill="#92aa68" d="M 1970.199219 327.90625 L 2277.515625 327.90625 L 2277.515625 635.222656 L 1970.199219 635.222656 Z M 1970.199219 327.90625 " fill-opacity="1" fill-rule="nonzero"/><path fill="#92aa68" d="M 2298.109375 327.90625 L 2605.421875 327.90625 L 2605.421875 635.222656 L 2298.109375 635.222656 Z M 2298.109375 327.90625 " fill-opacity="1" fill-rule="nonzero"/><path fill="#92aa68" d="M 2626.542969 327.90625 L 2933.859375 327.90625 L 2933.859375 635.222656 L 2626.542969 635.222656 Z M 2626.542969 327.90625 " fill-opacity="1" fill-rule="nonzero"/><g clip-path="url(#d70e8227db)"><path fill="#92aa68" d="M 1642.292969 656.34375 L 1949.605469 656.34375 L 1949.605469 963.65625 L 1642.292969 963.65625 Z M 1642.292969 656.34375 " fill-opacity="1" fill-rule="nonzero"/></g><path fill="#92aa68" d="M 1970.199219 656.34375 L 2277.515625 656.34375 L 2277.515625 963.65625 L 1970.199219 963.65625 Z M 1970.199219 656.34375 " fill-opacity="1" fill-rule="nonzero"/><path fill="#92aa68" d="M 2298.109375 656.34375 L 2605.421875 656.34375 L 2605.421875 963.65625 L 2298.109375 963.65625 Z M 2298.109375 656.34375 " fill-opacity="1" fill-rule="nonzero"/><path fill="#92aa68" d="M 2626.542969 656.34375 L 2933.859375 656.34375 L 2933.859375 963.65625 L 2626.542969 963.65625 Z M 2626.542969 656.34375 " fill-opacity="1" fill-rule="nonzero"/><g clip-path="url(#b2011ccba1)"><path fill="#92aa68" d="M 1642.292969 984.25 L 1949.605469 984.25 L 1949.605469 1291.5625 L 1642.292969 1291.5625 Z M 1642.292969 984.25 " fill-opacity="1" fill-rule="nonzero"/></g><path fill="#92aa68" d="M 1970.199219 984.25 L 2277.515625 984.25 L 2277.515625 1291.5625 L 1970.199219 1291.5625 Z M 1970.199219 984.25 " fill-opacity="1" fill-rule="nonzero"/><path fill="#92aa68" d="M 2298.109375 984.25 L 2605.421875 984.25 L 2605.421875 1291.5625 L 2298.109375 1291.5625 Z M 2298.109375 984.25 " fill-opacity="1" fill-rule="nonzero"/><path fill="#92aa68" d="M 2626.542969 984.25 L 2933.859375 984.25 L 2933.859375 1291.5625 L 2626.542969 1291.5625 Z M 2626.542969 984.25 " fill-opacity="1" fill-rule="nonzero"/><g clip-path="url(#7e2042ecd3)"><path fill="#92aa68" d="M 1642.292969 1312.6875 L 1949.605469 1312.6875 L 1949.605469 1620 L 1642.292969 1620 Z M 1642.292969 1312.6875 " fill-opacity="1" fill-rule="nonzero"/></g><path fill="#92aa68" d="M 1970.199219 1312.6875 L 2277.515625 1312.6875 L 2277.515625 1620 L 1970.199219 1620 Z M 1970.199219 1312.6875 " fill-opacity="1" fill-rule="nonzero"/><path fill="#92aa68" d="M 2298.109375 1312.6875 L 2605.421875 1312.6875 L 2605.421875 1620 L 2298.109375 1620 Z M 2298.109375 1312.6875 " fill-opacity="1" fill-rule="nonzero"/><path fill="#92aa68" d="M 2626.542969 1312.6875 L 2933.859375 1312.6875 L 2933.859375 1620 L 2626.542969 1620 Z M 2626.542969 1312.6875 " fill-opacity="1" fill-rule="nonzero"/></svg>